<mxfile host="Electron" modified="2023-12-13T13:48:58.408Z" agent="Mozilla/5.0 (Windows NT 10.0; Win64; x64) AppleWebKit/537.36 (KHTML, like Gecko) draw.io/22.1.2 Chrome/114.0.5735.289 Electron/25.9.4 Safari/537.36" etag="gug4AMYBcZSIGMNSQ8Lj" version="22.1.2" type="device" pages="2">
  <diagram name="container" id="NDQtPYH22WzV9vmCy0dj">
    <mxGraphModel dx="2391" dy="1194" grid="1" gridSize="10" guides="1" tooltips="1" connect="1" arrows="1" fold="1" page="1" pageScale="1" pageWidth="1169" pageHeight="827" math="0" shadow="0">
      <root>
        <mxCell id="0" />
        <mxCell id="1" parent="0" />
        <mxCell id="xF7NWQnMbHu_RwT7M--o-9" style="edgeStyle=orthogonalEdgeStyle;rounded=0;orthogonalLoop=1;jettySize=auto;html=1;exitX=0.5;exitY=0;exitDx=0;exitDy=0;exitPerimeter=0;" parent="1" source="TL4ukD8e8f7PNNYE3uDy-7" edge="1">
          <mxGeometry relative="1" as="geometry">
            <mxPoint x="1440" y="322.11" as="targetPoint" />
          </mxGeometry>
        </mxCell>
        <object placeholders="1" c4Name="user" c4Type="Person" c4Description="user which analyses variants" label="&lt;font style=&quot;font-size: 16px&quot;&gt;&lt;b&gt;%c4Name%&lt;/b&gt;&lt;/font&gt;&lt;div&gt;[%c4Type%]&lt;/div&gt;&lt;br&gt;&lt;div&gt;&lt;font style=&quot;font-size: 11px&quot;&gt;&lt;font color=&quot;#cccccc&quot;&gt;%c4Description%&lt;/font&gt;&lt;/div&gt;" id="ktYRrMSTA20FTdsS1ge8-1">
          <mxCell style="html=1;fontSize=11;dashed=0;whiteSpace=wrap;fillColor=#083F75;strokeColor=#06315C;fontColor=#ffffff;shape=mxgraph.c4.person2;align=center;metaEdit=1;points=[[0.5,0,0],[1,0.5,0],[1,0.75,0],[0.75,1,0],[0.5,1,0],[0.25,1,0],[0,0.75,0],[0,0.5,0]];resizable=0;" parent="1" vertex="1">
            <mxGeometry x="270" y="450" width="200" height="180" as="geometry" />
          </mxCell>
        </object>
        <object placeholders="1" c4Name="variants&#39; system" c4Type="SystemScopeBoundary" c4Application="Software System" label="&lt;font style=&quot;font-size: 16px&quot;&gt;&lt;b&gt;&lt;div style=&quot;text-align: left&quot;&gt;%c4Name%&lt;/div&gt;&lt;/b&gt;&lt;/font&gt;&lt;div style=&quot;text-align: left&quot;&gt;[%c4Application%]&lt;/div&gt;" id="ktYRrMSTA20FTdsS1ge8-5">
          <mxCell style="rounded=1;fontSize=11;whiteSpace=wrap;html=1;dashed=1;arcSize=20;fillColor=none;strokeColor=#666666;fontColor=#333333;labelBackgroundColor=none;align=left;verticalAlign=bottom;labelBorderColor=none;spacingTop=0;spacing=10;dashPattern=8 4;metaEdit=1;rotatable=0;perimeter=rectanglePerimeter;noLabel=0;labelPadding=0;allowArrows=0;connectable=0;expand=0;recursiveResize=0;editable=1;pointerEvents=0;absoluteArcSize=1;points=[[0.25,0,0],[0.5,0,0],[0.75,0,0],[1,0.25,0],[1,0.5,0],[1,0.75,0],[0.75,1,0],[0.5,1,0],[0.25,1,0],[0,0.75,0],[0,0.5,0],[0,0.25,0]];" parent="1" vertex="1">
            <mxGeometry x="460" y="85" width="1480" height="730" as="geometry" />
          </mxCell>
        </object>
        <object placeholders="1" c4Type="Single-Page application" c4Container="Container" c4Technology="VueJS" c4Description="website to manage tasks" label="&lt;font style=&quot;font-size: 16px&quot;&gt;&lt;b&gt;%c4Type%&lt;/b&gt;&lt;/font&gt;&lt;div&gt;[%c4Container%:&amp;nbsp;%c4Technology%]&lt;/div&gt;&lt;br&gt;&lt;div&gt;&lt;font style=&quot;font-size: 11px&quot;&gt;&lt;font color=&quot;#E6E6E6&quot;&gt;%c4Description%&lt;/font&gt;&lt;/div&gt;" id="ktYRrMSTA20FTdsS1ge8-6">
          <mxCell style="shape=mxgraph.c4.webBrowserContainer2;whiteSpace=wrap;html=1;boundedLbl=1;rounded=0;labelBackgroundColor=none;strokeColor=#118ACD;fillColor=#23A2D9;strokeColor=#118ACD;strokeColor2=#0E7DAD;fontSize=12;fontColor=#ffffff;align=center;metaEdit=1;points=[[0.5,0,0],[1,0.25,0],[1,0.5,0],[1,0.75,0],[0.5,1,0],[0,0.75,0],[0,0.5,0],[0,0.25,0]];resizable=0;" parent="1" vertex="1">
            <mxGeometry x="500" y="560" width="240" height="160" as="geometry" />
          </mxCell>
        </object>
        <mxCell id="xF7NWQnMbHu_RwT7M--o-6" style="edgeStyle=orthogonalEdgeStyle;rounded=0;orthogonalLoop=1;jettySize=auto;html=1;exitX=0.5;exitY=0;exitDx=0;exitDy=0;exitPerimeter=0;entryX=0;entryY=0.5;entryDx=0;entryDy=0;entryPerimeter=0;" parent="1" source="ktYRrMSTA20FTdsS1ge8-7" target="xF7NWQnMbHu_RwT7M--o-1" edge="1">
          <mxGeometry relative="1" as="geometry">
            <mxPoint x="620" y="320" as="targetPoint" />
          </mxGeometry>
        </mxCell>
        <mxCell id="xF7NWQnMbHu_RwT7M--o-10" value="check tasks status" style="edgeLabel;html=1;align=center;verticalAlign=middle;resizable=0;points=[];" parent="xF7NWQnMbHu_RwT7M--o-6" vertex="1" connectable="0">
          <mxGeometry x="0.001" y="-2" relative="1" as="geometry">
            <mxPoint as="offset" />
          </mxGeometry>
        </mxCell>
        <object placeholders="1" c4Name="Rest API" c4Type="Container" c4Technology="FastAPI, Rabbit MQ" c4Description="backend managing all requests" label="&lt;font style=&quot;font-size: 16px&quot;&gt;&lt;b&gt;%c4Name%&lt;/b&gt;&lt;/font&gt;&lt;div&gt;[%c4Type%: %c4Technology%]&lt;/div&gt;&lt;br&gt;&lt;div&gt;&lt;font style=&quot;font-size: 11px&quot;&gt;&lt;font color=&quot;#E6E6E6&quot;&gt;%c4Description%&lt;/font&gt;&lt;/div&gt;" id="ktYRrMSTA20FTdsS1ge8-7">
          <mxCell style="rounded=1;whiteSpace=wrap;html=1;fontSize=11;labelBackgroundColor=none;fillColor=#23A2D9;fontColor=#ffffff;align=center;arcSize=10;strokeColor=#0E7DAD;metaEdit=1;resizable=0;points=[[0.25,0,0],[0.5,0,0],[0.75,0,0],[1,0.25,0],[1,0.5,0],[1,0.75,0],[0.75,1,0],[0.5,1,0],[0.25,1,0],[0,0.75,0],[0,0.5,0],[0,0.25,0]];glass=0;shadow=0;" parent="1" vertex="1">
            <mxGeometry x="500" y="390" width="240" height="120" as="geometry" />
          </mxCell>
        </object>
        <mxCell id="ktYRrMSTA20FTdsS1ge8-10" style="edgeStyle=orthogonalEdgeStyle;rounded=0;orthogonalLoop=1;jettySize=auto;html=1;exitX=0.5;exitY=1;exitDx=0;exitDy=0;exitPerimeter=0;entryX=0.004;entryY=0.556;entryDx=0;entryDy=0;entryPerimeter=0;" parent="1" source="ktYRrMSTA20FTdsS1ge8-1" target="ktYRrMSTA20FTdsS1ge8-6" edge="1">
          <mxGeometry relative="1" as="geometry" />
        </mxCell>
        <mxCell id="ktYRrMSTA20FTdsS1ge8-11" value="usses website" style="edgeLabel;html=1;align=center;verticalAlign=middle;resizable=0;points=[];" parent="ktYRrMSTA20FTdsS1ge8-10" vertex="1" connectable="0">
          <mxGeometry x="0.2115" y="-1" relative="1" as="geometry">
            <mxPoint as="offset" />
          </mxGeometry>
        </mxCell>
        <object placeholders="1" c4Name="alg1 worker" c4Type="Container" c4Technology="python" c4Description="n instance of alg1" label="&lt;font style=&quot;font-size: 16px&quot;&gt;&lt;b&gt;%c4Name%&lt;/b&gt;&lt;/font&gt;&lt;div&gt;[%c4Type%: %c4Technology%]&lt;/div&gt;&lt;br&gt;&lt;div&gt;&lt;font style=&quot;font-size: 11px&quot;&gt;&lt;font color=&quot;#E6E6E6&quot;&gt;%c4Description%&lt;/font&gt;&lt;/div&gt;" id="ktYRrMSTA20FTdsS1ge8-12">
          <mxCell style="rounded=1;whiteSpace=wrap;html=1;fontSize=11;labelBackgroundColor=none;fillColor=#23A2D9;fontColor=#ffffff;align=center;arcSize=10;strokeColor=#0E7DAD;metaEdit=1;resizable=0;points=[[0.25,0,0],[0.5,0,0],[0.75,0,0],[1,0.25,0],[1,0.5,0],[1,0.75,0],[0.75,1,0],[0.5,1,0],[0.25,1,0],[0,0.75,0],[0,0.5,0],[0,0.25,0]];" parent="1" vertex="1">
            <mxGeometry x="1310" y="312.11" width="240" height="120" as="geometry" />
          </mxCell>
        </object>
        <mxCell id="TL4ukD8e8f7PNNYE3uDy-12" style="edgeStyle=orthogonalEdgeStyle;rounded=0;orthogonalLoop=1;jettySize=auto;html=1;" parent="1" source="TL4ukD8e8f7PNNYE3uDy-1" target="TL4ukD8e8f7PNNYE3uDy-7" edge="1">
          <mxGeometry relative="1" as="geometry">
            <Array as="points">
              <mxPoint x="1210" y="450" />
              <mxPoint x="1210" y="520" />
            </Array>
          </mxGeometry>
        </mxCell>
        <mxCell id="TL4ukD8e8f7PNNYE3uDy-13" value="each instance&amp;nbsp;&lt;br style=&quot;border-color: var(--border-color);&quot;&gt;pulls tasks&amp;nbsp;&lt;br style=&quot;border-color: var(--border-color);&quot;&gt;from queue" style="edgeLabel;html=1;align=center;verticalAlign=middle;resizable=0;points=[];" parent="TL4ukD8e8f7PNNYE3uDy-12" vertex="1" connectable="0">
          <mxGeometry x="-0.0033" y="-4" relative="1" as="geometry">
            <mxPoint x="44" y="-45" as="offset" />
          </mxGeometry>
        </mxCell>
        <mxCell id="CDA999xLJV9INVybJVRz-2" style="edgeStyle=orthogonalEdgeStyle;rounded=0;orthogonalLoop=1;jettySize=auto;html=1;" edge="1" parent="1">
          <mxGeometry relative="1" as="geometry">
            <mxPoint x="970.01" y="330" as="targetPoint" />
            <mxPoint x="969.9985057471265" y="390" as="sourcePoint" />
          </mxGeometry>
        </mxCell>
        <mxCell id="CDA999xLJV9INVybJVRz-3" value="read variant&#39;s data /&lt;br&gt;store variant&#39;s data" style="edgeLabel;html=1;align=center;verticalAlign=middle;resizable=0;points=[];" vertex="1" connectable="0" parent="CDA999xLJV9INVybJVRz-2">
          <mxGeometry x="-0.1345" y="2" relative="1" as="geometry">
            <mxPoint x="-28" y="-4" as="offset" />
          </mxGeometry>
        </mxCell>
        <object placeholders="1" c4Name="Orchestrator" c4Type="Container" c4Technology="Python, RabbitMQ" c4Description="checks SNV/INDEL and if cached" label="&lt;font style=&quot;font-size: 16px&quot;&gt;&lt;b&gt;%c4Name%&lt;/b&gt;&lt;/font&gt;&lt;div&gt;[%c4Type%: %c4Technology%]&lt;/div&gt;&lt;br&gt;&lt;div&gt;&lt;font style=&quot;font-size: 11px&quot;&gt;&lt;font color=&quot;#E6E6E6&quot;&gt;%c4Description%&lt;/font&gt;&lt;/div&gt;" id="TL4ukD8e8f7PNNYE3uDy-1">
          <mxCell style="rounded=1;whiteSpace=wrap;html=1;fontSize=11;labelBackgroundColor=none;fillColor=#23A2D9;fontColor=#ffffff;align=center;arcSize=10;strokeColor=#0E7DAD;metaEdit=1;resizable=0;points=[[0.25,0,0],[0.5,0,0],[0.75,0,0],[1,0.25,0],[1,0.5,0],[1,0.75,0],[0.75,1,0],[0.5,1,0],[0.25,1,0],[0,0.75,0],[0,0.5,0],[0,0.25,0]];" parent="1" vertex="1">
            <mxGeometry x="870" y="390" width="240" height="120" as="geometry" />
          </mxCell>
        </object>
        <mxCell id="TL4ukD8e8f7PNNYE3uDy-4" style="edgeStyle=orthogonalEdgeStyle;rounded=0;orthogonalLoop=1;jettySize=auto;html=1;exitX=0.5;exitY=0;exitDx=0;exitDy=0;exitPerimeter=0;entryX=0.5;entryY=1;entryDx=0;entryDy=0;entryPerimeter=0;" parent="1" source="ktYRrMSTA20FTdsS1ge8-6" target="ktYRrMSTA20FTdsS1ge8-7" edge="1">
          <mxGeometry relative="1" as="geometry" />
        </mxCell>
        <mxCell id="TL4ukD8e8f7PNNYE3uDy-5" value="sends http request" style="edgeLabel;html=1;align=center;verticalAlign=middle;resizable=0;points=[];" parent="TL4ukD8e8f7PNNYE3uDy-4" vertex="1" connectable="0">
          <mxGeometry x="-0.0462" y="-4" relative="1" as="geometry">
            <mxPoint x="-4" y="4" as="offset" />
          </mxGeometry>
        </mxCell>
        <mxCell id="TL4ukD8e8f7PNNYE3uDy-6" style="edgeStyle=orthogonalEdgeStyle;rounded=0;orthogonalLoop=1;jettySize=auto;html=1;exitX=1;exitY=0.5;exitDx=0;exitDy=0;exitPerimeter=0;entryX=0;entryY=0.5;entryDx=0;entryDy=0;entryPerimeter=0;" parent="1" source="ktYRrMSTA20FTdsS1ge8-7" target="TL4ukD8e8f7PNNYE3uDy-1" edge="1">
          <mxGeometry relative="1" as="geometry" />
        </mxCell>
        <mxCell id="1zvet3lnB2cuU50OFxva-34" value="passes variants&lt;br&gt;(synchronously)" style="edgeLabel;html=1;align=center;verticalAlign=middle;resizable=0;points=[];" parent="TL4ukD8e8f7PNNYE3uDy-6" vertex="1" connectable="0">
          <mxGeometry x="-0.1167" y="-1" relative="1" as="geometry">
            <mxPoint x="8" y="-1" as="offset" />
          </mxGeometry>
        </mxCell>
        <object placeholders="1" c4Name="alg M worker" c4Type="Container" c4Technology="python" c4Description="n instance of alg m" label="&lt;font style=&quot;font-size: 16px&quot;&gt;&lt;b&gt;%c4Name%&lt;/b&gt;&lt;/font&gt;&lt;div&gt;[%c4Type%: %c4Technology%]&lt;/div&gt;&lt;br&gt;&lt;div&gt;&lt;font style=&quot;font-size: 11px&quot;&gt;&lt;font color=&quot;#E6E6E6&quot;&gt;%c4Description%&lt;/font&gt;&lt;/div&gt;" id="TL4ukD8e8f7PNNYE3uDy-7">
          <mxCell style="rounded=1;whiteSpace=wrap;html=1;fontSize=11;labelBackgroundColor=none;fillColor=#23A2D9;fontColor=#ffffff;align=center;arcSize=10;strokeColor=#0E7DAD;metaEdit=1;resizable=0;points=[[0.25,0,0],[0.5,0,0],[0.75,0,0],[1,0.25,0],[1,0.5,0],[1,0.75,0],[0.75,1,0],[0.5,1,0],[0.25,1,0],[0,0.75,0],[0,0.5,0],[0,0.25,0]];" parent="1" vertex="1">
            <mxGeometry x="1310" y="452.11" width="240" height="120" as="geometry" />
          </mxCell>
        </object>
        <object placeholders="1" c4Type="DB variants tasks" c4Container="DB" c4Technology="Redis" c4Description="cached variants and tasks" label="&lt;font style=&quot;font-size: 16px&quot;&gt;&lt;b&gt;%c4Type%&lt;/b&gt;&lt;/font&gt;&lt;div&gt;[%c4Container%:&amp;nbsp;%c4Technology%]&lt;/div&gt;&lt;br&gt;&lt;div&gt;&lt;font style=&quot;font-size: 11px&quot;&gt;&lt;font color=&quot;#E6E6E6&quot;&gt;%c4Description%&lt;/font&gt;&lt;/div&gt;" id="xF7NWQnMbHu_RwT7M--o-1">
          <mxCell style="shape=cylinder3;size=15;whiteSpace=wrap;html=1;boundedLbl=1;rounded=0;labelBackgroundColor=none;fillColor=#23A2D9;fontSize=12;fontColor=#ffffff;align=center;strokeColor=#0E7DAD;metaEdit=1;points=[[0.5,0,0],[1,0.25,0],[1,0.5,0],[1,0.75,0],[0.5,1,0],[0,0.75,0],[0,0.5,0],[0,0.25,0]];resizable=0;" parent="1" vertex="1">
            <mxGeometry x="880" y="210" width="240" height="120" as="geometry" />
          </mxCell>
        </object>
        <mxCell id="xF7NWQnMbHu_RwT7M--o-3" style="edgeStyle=orthogonalEdgeStyle;rounded=0;orthogonalLoop=1;jettySize=auto;html=1;" parent="1" target="ktYRrMSTA20FTdsS1ge8-12" edge="1">
          <mxGeometry relative="1" as="geometry">
            <mxPoint x="1220" y="428" as="targetPoint" />
            <Array as="points">
              <mxPoint x="1210" y="450" />
              <mxPoint x="1210" y="370" />
            </Array>
            <mxPoint x="1170" y="450" as="sourcePoint" />
          </mxGeometry>
        </mxCell>
        <mxCell id="xF7NWQnMbHu_RwT7M--o-12" style="edgeStyle=orthogonalEdgeStyle;rounded=0;orthogonalLoop=1;jettySize=auto;html=1;entryX=0.505;entryY=0.997;entryDx=0;entryDy=0;entryPerimeter=0;" parent="1" edge="1">
          <mxGeometry relative="1" as="geometry">
            <mxPoint x="1030" y="390" as="sourcePoint" />
            <mxPoint x="1030.2000000000003" y="329.64" as="targetPoint" />
            <Array as="points">
              <mxPoint x="1030" y="390" />
            </Array>
          </mxGeometry>
        </mxCell>
        <mxCell id="xF7NWQnMbHu_RwT7M--o-13" value="create main task" style="edgeLabel;html=1;align=center;verticalAlign=middle;resizable=0;points=[];" parent="xF7NWQnMbHu_RwT7M--o-12" vertex="1" connectable="0">
          <mxGeometry x="0.1609" relative="1" as="geometry">
            <mxPoint x="20" y="1" as="offset" />
          </mxGeometry>
        </mxCell>
        <mxCell id="xF7NWQnMbHu_RwT7M--o-17" style="edgeStyle=orthogonalEdgeStyle;rounded=0;orthogonalLoop=1;jettySize=auto;html=1;exitX=0.5;exitY=0;exitDx=0;exitDy=0;exitPerimeter=0;entryX=0.003;entryY=0.333;entryDx=0;entryDy=0;entryPerimeter=0;" parent="1" source="ktYRrMSTA20FTdsS1ge8-1" target="ktYRrMSTA20FTdsS1ge8-7" edge="1">
          <mxGeometry relative="1" as="geometry" />
        </mxCell>
        <mxCell id="xF7NWQnMbHu_RwT7M--o-18" value="make http request" style="edgeLabel;html=1;align=center;verticalAlign=middle;resizable=0;points=[];" parent="xF7NWQnMbHu_RwT7M--o-17" vertex="1" connectable="0">
          <mxGeometry x="0.0675" y="2" relative="1" as="geometry">
            <mxPoint as="offset" />
          </mxGeometry>
        </mxCell>
        <object placeholders="1" c4Type="shared volume" c4Container="shared volume" c4Technology="file storage" c4Description="stores input and output variants&#39; files" label="&lt;font style=&quot;font-size: 16px&quot;&gt;&lt;b&gt;%c4Type%&lt;/b&gt;&lt;/font&gt;&lt;div&gt;[%c4Container%:&amp;nbsp;%c4Technology%]&lt;/div&gt;&lt;br&gt;&lt;div&gt;&lt;font style=&quot;font-size: 11px&quot;&gt;&lt;font color=&quot;#E6E6E6&quot;&gt;%c4Description%&lt;/font&gt;&lt;/div&gt;" id="1zvet3lnB2cuU50OFxva-35">
          <mxCell style="shape=cylinder3;size=15;whiteSpace=wrap;html=1;boundedLbl=1;rounded=0;labelBackgroundColor=none;fillColor=#23A2D9;fontSize=12;fontColor=#ffffff;align=center;strokeColor=#0E7DAD;metaEdit=1;points=[[0.5,0,0],[1,0.25,0],[1,0.5,0],[1,0.75,0],[0.5,1,0],[0,0.75,0],[0,0.5,0],[0,0.25,0]];resizable=0;" parent="1" vertex="1">
            <mxGeometry x="900" y="580" width="240" height="120" as="geometry" />
          </mxCell>
        </object>
        <object placeholders="1" c4Name="TSV parser" c4Type="Container" c4Technology="python" c4Description="parses files with variants" label="&lt;font style=&quot;font-size: 16px&quot;&gt;&lt;b&gt;%c4Name%&lt;/b&gt;&lt;/font&gt;&lt;div&gt;[%c4Type%: %c4Technology%]&lt;/div&gt;&lt;br&gt;&lt;div&gt;&lt;font style=&quot;font-size: 11px&quot;&gt;&lt;font color=&quot;#E6E6E6&quot;&gt;%c4Description%&lt;/font&gt;&lt;/div&gt;" id="1zvet3lnB2cuU50OFxva-36">
          <mxCell style="rounded=1;whiteSpace=wrap;html=1;fontSize=11;labelBackgroundColor=none;fillColor=#23A2D9;fontColor=#ffffff;align=center;arcSize=10;strokeColor=#0E7DAD;metaEdit=1;resizable=0;points=[[0.25,0,0],[0.5,0,0],[0.75,0,0],[1,0.25,0],[1,0.5,0],[1,0.75,0],[0.75,1,0],[0.5,1,0],[0.25,1,0],[0,0.75,0],[0,0.5,0],[0,0.25,0]];" parent="1" vertex="1">
            <mxGeometry x="1690" y="390" width="240" height="120" as="geometry" />
          </mxCell>
        </object>
        <mxCell id="1zvet3lnB2cuU50OFxva-37" style="edgeStyle=orthogonalEdgeStyle;rounded=0;orthogonalLoop=1;jettySize=auto;html=1;exitX=0;exitY=0.75;exitDx=0;exitDy=0;exitPerimeter=0;entryX=0;entryY=0.25;entryDx=0;entryDy=0;entryPerimeter=0;" parent="1" source="TL4ukD8e8f7PNNYE3uDy-1" target="1zvet3lnB2cuU50OFxva-35" edge="1">
          <mxGeometry relative="1" as="geometry" />
        </mxCell>
        <mxCell id="1zvet3lnB2cuU50OFxva-38" value="saves filtered&lt;br&gt;file" style="edgeLabel;html=1;align=center;verticalAlign=middle;resizable=0;points=[];" parent="1zvet3lnB2cuU50OFxva-37" vertex="1" connectable="0">
          <mxGeometry x="-0.4102" y="-3" relative="1" as="geometry">
            <mxPoint as="offset" />
          </mxGeometry>
        </mxCell>
        <mxCell id="1zvet3lnB2cuU50OFxva-39" style="edgeStyle=orthogonalEdgeStyle;rounded=0;orthogonalLoop=1;jettySize=auto;html=1;exitX=0.5;exitY=1;exitDx=0;exitDy=0;exitPerimeter=0;entryX=1;entryY=0.25;entryDx=0;entryDy=0;entryPerimeter=0;" parent="1" source="TL4ukD8e8f7PNNYE3uDy-7" target="1zvet3lnB2cuU50OFxva-35" edge="1">
          <mxGeometry relative="1" as="geometry" />
        </mxCell>
        <mxCell id="1zvet3lnB2cuU50OFxva-40" value="read input&lt;br&gt;&amp;nbsp;/ write output&amp;nbsp;&lt;br&gt;files" style="edgeLabel;html=1;align=center;verticalAlign=middle;resizable=0;points=[];" parent="1zvet3lnB2cuU50OFxva-39" vertex="1" connectable="0">
          <mxGeometry x="-0.7746" y="1" relative="1" as="geometry">
            <mxPoint as="offset" />
          </mxGeometry>
        </mxCell>
        <mxCell id="1zvet3lnB2cuU50OFxva-41" style="edgeStyle=orthogonalEdgeStyle;rounded=0;orthogonalLoop=1;jettySize=auto;html=1;exitX=1;exitY=0.75;exitDx=0;exitDy=0;exitPerimeter=0;entryX=0;entryY=0.75;entryDx=0;entryDy=0;entryPerimeter=0;" parent="1" source="ktYRrMSTA20FTdsS1ge8-7" target="1zvet3lnB2cuU50OFxva-35" edge="1">
          <mxGeometry relative="1" as="geometry">
            <Array as="points">
              <mxPoint x="790" y="480" />
              <mxPoint x="790" y="670" />
            </Array>
          </mxGeometry>
        </mxCell>
        <mxCell id="1zvet3lnB2cuU50OFxva-43" value="downloads&lt;br&gt;files with results" style="edgeLabel;html=1;align=center;verticalAlign=middle;resizable=0;points=[];" parent="1zvet3lnB2cuU50OFxva-41" vertex="1" connectable="0">
          <mxGeometry x="-0.2772" y="-3" relative="1" as="geometry">
            <mxPoint as="offset" />
          </mxGeometry>
        </mxCell>
        <mxCell id="1zvet3lnB2cuU50OFxva-45" style="edgeStyle=orthogonalEdgeStyle;rounded=0;orthogonalLoop=1;jettySize=auto;html=1;exitX=1;exitY=0.25;exitDx=0;exitDy=0;exitPerimeter=0;entryX=0.25;entryY=0;entryDx=0;entryDy=0;entryPerimeter=0;" parent="1" source="TL4ukD8e8f7PNNYE3uDy-1" target="1zvet3lnB2cuU50OFxva-36" edge="1">
          <mxGeometry relative="1" as="geometry">
            <Array as="points">
              <mxPoint x="1180" y="420" />
              <mxPoint x="1180" y="270" />
              <mxPoint x="1750" y="270" />
            </Array>
          </mxGeometry>
        </mxCell>
        <mxCell id="1zvet3lnB2cuU50OFxva-47" value="trigger result generatiion&lt;br&gt;in case of all variants &lt;br&gt;already cached" style="edgeLabel;html=1;align=center;verticalAlign=middle;resizable=0;points=[];" parent="1zvet3lnB2cuU50OFxva-45" vertex="1" connectable="0">
          <mxGeometry x="0.2246" relative="1" as="geometry">
            <mxPoint as="offset" />
          </mxGeometry>
        </mxCell>
        <mxCell id="1zvet3lnB2cuU50OFxva-50" style="edgeStyle=orthogonalEdgeStyle;rounded=0;orthogonalLoop=1;jettySize=auto;html=1;exitX=1;exitY=0.5;exitDx=0;exitDy=0;exitPerimeter=0;entryX=0;entryY=0.25;entryDx=0;entryDy=0;entryPerimeter=0;" parent="1" source="ktYRrMSTA20FTdsS1ge8-12" target="1zvet3lnB2cuU50OFxva-36" edge="1">
          <mxGeometry relative="1" as="geometry" />
        </mxCell>
        <mxCell id="1zvet3lnB2cuU50OFxva-52" value="notify about&lt;br&gt;done subtask&amp;nbsp;" style="edgeLabel;html=1;align=center;verticalAlign=middle;resizable=0;points=[];" parent="1zvet3lnB2cuU50OFxva-50" vertex="1" connectable="0">
          <mxGeometry x="-0.3401" y="2" relative="1" as="geometry">
            <mxPoint as="offset" />
          </mxGeometry>
        </mxCell>
        <mxCell id="1zvet3lnB2cuU50OFxva-51" style="edgeStyle=orthogonalEdgeStyle;rounded=0;orthogonalLoop=1;jettySize=auto;html=1;exitX=1;exitY=0.5;exitDx=0;exitDy=0;exitPerimeter=0;entryX=0;entryY=0.75;entryDx=0;entryDy=0;entryPerimeter=0;" parent="1" source="TL4ukD8e8f7PNNYE3uDy-7" target="1zvet3lnB2cuU50OFxva-36" edge="1">
          <mxGeometry relative="1" as="geometry" />
        </mxCell>
        <mxCell id="1zvet3lnB2cuU50OFxva-53" value="notify about&lt;br style=&quot;border-color: var(--border-color);&quot;&gt;done subtask&amp;nbsp;" style="edgeLabel;html=1;align=center;verticalAlign=middle;resizable=0;points=[];" parent="1zvet3lnB2cuU50OFxva-51" vertex="1" connectable="0">
          <mxGeometry x="-0.2306" relative="1" as="geometry">
            <mxPoint as="offset" />
          </mxGeometry>
        </mxCell>
        <mxCell id="1zvet3lnB2cuU50OFxva-54" style="edgeStyle=orthogonalEdgeStyle;rounded=0;orthogonalLoop=1;jettySize=auto;html=1;exitX=0.5;exitY=1;exitDx=0;exitDy=0;exitPerimeter=0;entryX=1;entryY=0.5;entryDx=0;entryDy=0;entryPerimeter=0;startArrow=none;startFill=0;" parent="1" source="1zvet3lnB2cuU50OFxva-36" edge="1" target="1zvet3lnB2cuU50OFxva-35">
          <mxGeometry relative="1" as="geometry">
            <mxPoint x="1751" y="510" as="sourcePoint" />
            <mxPoint x="1121" y="850" as="targetPoint" />
            <Array as="points">
              <mxPoint x="1810" y="640" />
            </Array>
          </mxGeometry>
        </mxCell>
        <mxCell id="1zvet3lnB2cuU50OFxva-57" value="write result file&lt;br&gt;/&lt;br&gt;read files for parsing" style="edgeLabel;html=1;align=center;verticalAlign=middle;resizable=0;points=[];" parent="1zvet3lnB2cuU50OFxva-54" vertex="1" connectable="0">
          <mxGeometry x="0.3914" y="-1" relative="1" as="geometry">
            <mxPoint x="217" y="1" as="offset" />
          </mxGeometry>
        </mxCell>
        <mxCell id="1zvet3lnB2cuU50OFxva-58" style="edgeStyle=orthogonalEdgeStyle;rounded=0;orthogonalLoop=1;jettySize=auto;html=1;exitX=0.5;exitY=0;exitDx=0;exitDy=0;exitPerimeter=0;entryX=0.5;entryY=0;entryDx=0;entryDy=0;entryPerimeter=0;" parent="1" source="1zvet3lnB2cuU50OFxva-36" target="xF7NWQnMbHu_RwT7M--o-1" edge="1">
          <mxGeometry relative="1" as="geometry" />
        </mxCell>
        <mxCell id="1zvet3lnB2cuU50OFxva-59" value="mark substask as done" style="edgeLabel;html=1;align=center;verticalAlign=middle;resizable=0;points=[];" parent="1zvet3lnB2cuU50OFxva-58" vertex="1" connectable="0">
          <mxGeometry x="0.0036" y="1" relative="1" as="geometry">
            <mxPoint as="offset" />
          </mxGeometry>
        </mxCell>
        <mxCell id="CDA999xLJV9INVybJVRz-6" value="writes results after parsing&lt;br&gt;/&lt;br&gt;read cached results" style="edgeLabel;html=1;align=center;verticalAlign=middle;resizable=0;points=[];" vertex="1" connectable="0" parent="1zvet3lnB2cuU50OFxva-58">
          <mxGeometry x="0.442" relative="1" as="geometry">
            <mxPoint x="13" as="offset" />
          </mxGeometry>
        </mxCell>
      </root>
    </mxGraphModel>
  </diagram>
  <diagram id="gt1FmrcQAd4Gq8eVTTVr" name="context">
    <mxGraphModel dx="1149" dy="931" grid="1" gridSize="10" guides="1" tooltips="1" connect="1" arrows="1" fold="1" page="1" pageScale="1" pageWidth="1169" pageHeight="827" math="0" shadow="0">
      <root>
        <mxCell id="0" />
        <mxCell id="1" parent="0" />
        <object placeholders="1" c4Name="user" c4Type="Person" c4Description="user which analyses variants" label="&lt;font style=&quot;font-size: 16px&quot;&gt;&lt;b&gt;%c4Name%&lt;/b&gt;&lt;/font&gt;&lt;div&gt;[%c4Type%]&lt;/div&gt;&lt;br&gt;&lt;div&gt;&lt;font style=&quot;font-size: 11px&quot;&gt;&lt;font color=&quot;#cccccc&quot;&gt;%c4Description%&lt;/font&gt;&lt;/div&gt;" id="IVq926hHyWrwx3LP3J_m-1">
          <mxCell style="html=1;fontSize=11;dashed=0;whiteSpace=wrap;fillColor=#083F75;strokeColor=#06315C;fontColor=#ffffff;shape=mxgraph.c4.person2;align=center;metaEdit=1;points=[[0.5,0,0],[1,0.5,0],[1,0.75,0],[0.75,1,0],[0.5,1,0],[0.25,1,0],[0,0.75,0],[0,0.5,0]];resizable=0;" vertex="1" parent="1">
            <mxGeometry x="260" y="400" width="200" height="180" as="geometry" />
          </mxCell>
        </object>
        <object placeholders="1" c4Name="variants&#39; system" c4Type="Software System" c4Description="system to analyse variants" label="&lt;font style=&quot;font-size: 16px&quot;&gt;&lt;b&gt;%c4Name%&lt;/b&gt;&lt;/font&gt;&lt;div&gt;[%c4Type%]&lt;/div&gt;&lt;br&gt;&lt;div&gt;&lt;font style=&quot;font-size: 11px&quot;&gt;&lt;font color=&quot;#cccccc&quot;&gt;%c4Description%&lt;/font&gt;&lt;/div&gt;" id="IVq926hHyWrwx3LP3J_m-2">
          <mxCell style="rounded=1;whiteSpace=wrap;html=1;labelBackgroundColor=none;fillColor=#1061B0;fontColor=#ffffff;align=center;arcSize=11;strokeColor=#0D5091;metaEdit=1;resizable=0;points=[[0.25,0,0],[0.5,0,0],[0.75,0,0],[1,0.25,0],[1,0.5,0],[1,0.75,0],[0.75,1,0],[0.5,1,0],[0.25,1,0],[0,0.75,0],[0,0.5,0],[0,0.25,0]];" vertex="1" parent="1">
            <mxGeometry x="690" y="450" width="240" height="120" as="geometry" />
          </mxCell>
        </object>
        <object placeholders="1" c4Type="Relationship" c4Technology="HTTP POST" c4Description="Makes API call to register/collect task" label="&lt;div style=&quot;text-align: left&quot;&gt;&lt;div style=&quot;text-align: center&quot;&gt;&lt;b&gt;%c4Description%&lt;/b&gt;&lt;/div&gt;&lt;div style=&quot;text-align: center&quot;&gt;[%c4Technology%]&lt;/div&gt;&lt;/div&gt;" id="IVq926hHyWrwx3LP3J_m-3">
          <mxCell style="endArrow=blockThin;html=1;fontSize=10;fontColor=#404040;strokeWidth=1;endFill=1;strokeColor=#828282;elbow=vertical;metaEdit=1;endSize=14;startSize=14;jumpStyle=arc;jumpSize=16;rounded=0;edgeStyle=orthogonalEdgeStyle;" edge="1" parent="1">
            <mxGeometry x="-0.0833" width="240" relative="1" as="geometry">
              <mxPoint x="450" y="500" as="sourcePoint" />
              <mxPoint x="690" y="500" as="targetPoint" />
              <mxPoint as="offset" />
            </mxGeometry>
          </mxCell>
        </object>
        <object placeholders="1" c4Type="Relationship" c4Description="uses website to manage tasks" label="&lt;div style=&quot;text-align: left&quot;&gt;&lt;div style=&quot;text-align: center&quot;&gt;&lt;b&gt;%c4Description%&lt;/b&gt;&lt;/div&gt;" id="IVq926hHyWrwx3LP3J_m-4">
          <mxCell style="endArrow=blockThin;html=1;fontSize=10;fontColor=#404040;strokeWidth=1;endFill=1;strokeColor=#828282;elbow=vertical;metaEdit=1;endSize=14;startSize=14;jumpStyle=arc;jumpSize=16;rounded=0;edgeStyle=orthogonalEdgeStyle;" edge="1" parent="1">
            <mxGeometry width="240" relative="1" as="geometry">
              <mxPoint x="450" y="540" as="sourcePoint" />
              <mxPoint x="690" y="540" as="targetPoint" />
            </mxGeometry>
          </mxCell>
        </object>
        <object placeholders="1" c4Name="SVN dataset" c4Type="data storage" c4Description="preprocessed data" label="&lt;font style=&quot;font-size: 16px&quot;&gt;&lt;b&gt;%c4Name%&lt;/b&gt;&lt;/font&gt;&lt;div&gt;[%c4Type%]&lt;/div&gt;&lt;br&gt;&lt;div&gt;&lt;font style=&quot;font-size: 11px&quot;&gt;&lt;font color=&quot;#cccccc&quot;&gt;%c4Description%&lt;/font&gt;&lt;/div&gt;" id="IVq926hHyWrwx3LP3J_m-25">
          <mxCell style="rounded=1;whiteSpace=wrap;html=1;labelBackgroundColor=none;fillColor=#8C8496;fontColor=#ffffff;align=center;arcSize=10;strokeColor=#736782;metaEdit=1;resizable=0;points=[[0.25,0,0],[0.5,0,0],[0.75,0,0],[1,0.25,0],[1,0.5,0],[1,0.75,0],[0.75,1,0],[0.5,1,0],[0.25,1,0],[0,0.75,0],[0,0.5,0],[0,0.25,0]];" vertex="1" parent="1">
            <mxGeometry x="690" y="630" width="240" height="120" as="geometry" />
          </mxCell>
        </object>
        <mxCell id="IVq926hHyWrwx3LP3J_m-27" style="edgeStyle=orthogonalEdgeStyle;rounded=0;orthogonalLoop=1;jettySize=auto;html=1;exitX=0.5;exitY=0;exitDx=0;exitDy=0;exitPerimeter=0;entryX=0.5;entryY=1;entryDx=0;entryDy=0;entryPerimeter=0;" edge="1" parent="1" source="IVq926hHyWrwx3LP3J_m-25" target="IVq926hHyWrwx3LP3J_m-2">
          <mxGeometry relative="1" as="geometry" />
        </mxCell>
        <mxCell id="IVq926hHyWrwx3LP3J_m-28" value="loaded one at system set up" style="edgeLabel;html=1;align=center;verticalAlign=middle;resizable=0;points=[];" vertex="1" connectable="0" parent="IVq926hHyWrwx3LP3J_m-27">
          <mxGeometry x="-0.0037" y="-1" relative="1" as="geometry">
            <mxPoint as="offset" />
          </mxGeometry>
        </mxCell>
      </root>
    </mxGraphModel>
  </diagram>
</mxfile>
